<svg width="900" height="1166" viewBox="0 0 900 1166" fill="none" xmlns="http://www.w3.org/2000/svg">
<path d="M186.304 970.877C179.32 972.041 177.768 978.249 175.052 983.681L130.432 1080.29C129.268 1083.01 127.328 1085.73 127.328 1088.83C127.328 1091.93 130.432 1093.87 133.536 1094.26V1097.37H88.916V1094.26C91.632 1093.87 94.736 1091.93 94.736 1088.83C94.736 1085.73 93.184 1083.01 92.02 1080.29L47.4 983.681C44.296 977.861 43.132 972.429 35.76 970.877V967.773H81.932V970.877C78.828 971.653 75.724 972.817 75.724 976.309C75.724 979.025 76.888 981.353 77.664 983.681L112.196 1059.73L146.34 983.681C147.504 981.353 148.28 979.025 148.28 976.309C148.28 972.817 145.176 971.653 142.072 970.877V967.773H186.304V970.877ZM343.118 1032.57C343.118 1075.25 308.974 1099.69 269.01 1099.69C255.818 1099.69 241.85 1097.75 229.822 1091.55C208.094 1079.91 194.514 1057.01 194.514 1032.57C194.514 989.889 228.658 965.833 269.01 965.833C282.202 965.833 296.17 967.773 308.198 973.981C329.926 985.233 343.118 1008.13 343.118 1032.57ZM314.406 1032.57C314.406 1006.19 295.006 987.949 269.01 987.949C243.014 987.949 223.614 1006.19 223.614 1032.57C223.614 1058.95 243.014 1077.58 269.01 1077.58C295.006 1077.58 314.406 1058.95 314.406 1032.57ZM510.045 1097.37H463.097V1094.26C465.037 1093.87 467.753 1093.1 467.753 1090.77C467.753 1088.05 464.649 1084.56 463.485 1082.62L437.489 1044.6H402.569V1087.28C402.569 1091.16 405.285 1093.1 408.777 1094.26V1097.37H368.425V1094.26C368.425 1094.26 374.633 1093.1 374.633 1087.28V977.861C374.633 973.981 371.917 972.041 368.425 970.877V967.773H449.517C477.065 967.773 502.673 973.205 502.673 1007.35C502.673 1029.47 487.929 1040.33 467.365 1043.43L492.585 1079.13C496.853 1085.34 501.509 1093.49 510.045 1094.26V1097.37ZM474.349 1006.19C474.349 989.501 459.217 988.337 446.413 988.337H402.569V1023.26H446.413C458.829 1023.26 474.349 1022.48 474.349 1006.19ZM692.483 1097.37H644.759V1094.26C647.863 1093.87 650.967 1092.32 650.967 1088.83C650.967 1086.5 650.579 1084.56 649.415 1082.62L640.491 1064.39H581.515L572.979 1082.62C572.203 1084.17 571.039 1086.5 571.039 1088.44C571.039 1091.93 574.531 1093.49 577.247 1094.26V1097.37H534.567V1094.26C540.775 1093.1 542.327 1089.61 545.043 1084.17L592.379 984.845C593.543 982.517 594.707 980.189 594.707 977.473C594.707 973.981 592.379 972.041 589.275 970.877V967.773H635.059V970.877C632.343 971.653 629.627 973.593 629.627 976.697C629.627 978.637 630.403 980.965 631.179 982.905L680.843 1082.62C683.559 1088.05 685.887 1093.1 692.483 1094.26V1097.37ZM632.343 1046.54L611.391 1000.37L590.051 1046.54H632.343ZM862.323 1097.37H821.583V1094.26C823.523 1093.87 825.463 1092.71 825.463 1090.38C825.463 1087.28 822.747 1085.34 820.807 1083.4L748.639 1008.51V1087.28C748.639 1091.16 750.967 1093.1 754.459 1094.26V1097.37H716.435V1094.26C719.927 1093.1 722.643 1091.16 722.643 1087.28V977.861C722.643 973.981 719.927 972.041 716.435 970.877V967.773H760.667V970.877C758.339 971.653 756.399 972.817 756.399 975.145C756.399 977.473 757.563 979.025 759.115 980.189L830.507 1054.69V977.861C830.507 973.981 827.791 972.041 824.299 970.877V967.773H862.323V970.877C858.831 972.041 856.115 973.981 856.115 977.861V1087.28C856.115 1091.16 858.831 1093.1 862.323 1094.26V1097.37Z" fill="black"/>
<path d="M900 456.763C900 715.296 693.211 863.365 451.175 863.365C371.279 863.365 286.684 851.614 213.838 814.009C82.2455 743.5 0 604.832 0 456.763C0 198.229 206.788 52.5103 451.175 52.5103C531.07 52.5103 615.666 64.2618 688.512 101.867C820.104 170.025 900 308.693 900 456.763ZM726.11 456.763C726.11 296.942 608.616 186.478 451.175 186.478C293.734 186.478 176.24 296.942 176.24 456.763C176.24 616.583 293.734 729.398 451.175 729.398C608.616 729.398 726.11 616.583 726.11 456.763Z" fill="black"/>
<path d="M897.558 20.1579C855.918 27.7171 846.665 68.0329 830.472 103.309L449.935 841.593C442.996 859.231 545.937 766 545.937 786.158C545.937 806.316 564.443 818.915 582.95 821.435V841.593H316.921V821.435C333.114 818.915 351.621 806.316 351.621 786.158C351.621 766 456.875 859.231 449.935 841.593L69.3988 103.309C50.8924 65.5131 43.9526 30.2368 0 20.1579V0H275.282V20.1579C256.776 25.1974 238.269 32.7566 238.269 55.4343C238.269 73.0724 227.745 277.224 232.372 292.343L455.719 597.178L670.855 292.343C677.795 277.224 670.855 73.0724 670.855 55.4343C670.855 32.7566 652.349 25.1974 633.842 20.1579V0H897.558V20.1579Z" fill="black"/>
</svg>
