<svg width="477" height="457" viewBox="0 0 477 457" fill="none" xmlns="http://www.w3.org/2000/svg">
<path d="M476.392 241.775C476.392 378.623 366.934 457 238.818 457C196.527 457 151.749 450.78 113.19 430.874C43.5345 393.552 0 320.152 0 241.775C0 104.927 109.458 27.7949 238.818 27.7949C281.108 27.7949 325.887 34.0153 364.446 53.9204C434.101 89.9986 476.392 163.399 476.392 241.775ZM384.347 241.775C384.347 157.178 322.155 98.7071 238.818 98.7071C155.48 98.7071 93.2882 157.178 93.2882 241.775C93.2882 326.372 155.48 386.088 238.818 386.088C322.155 386.088 384.347 326.372 384.347 241.775Z" fill="white"/>
<path d="M475.099 10.6701C453.058 14.6713 448.16 36.0115 439.589 54.6841L238.162 445.475C234.488 454.812 288.978 405.463 288.978 416.133C288.978 426.803 298.774 433.471 308.569 434.805V445.475H167.754V434.805C176.325 433.471 186.121 426.803 186.121 416.133C186.121 405.463 241.835 454.812 238.162 445.475L36.7345 54.6841C26.9386 34.6777 23.2652 16.0051 0 10.6701V0H145.713V10.6701C135.918 13.3376 126.122 17.3389 126.122 29.3427C126.122 38.679 120.551 146.742 123 154.744L241.223 316.101L355.1 154.744C358.773 146.741 355.1 38.679 355.1 29.3427C355.1 17.3389 345.304 13.3376 335.508 10.6701V0H475.099V10.6701Z" fill="white"/>
</svg>
